<svg xmlns="http://www.w3.org/2000/svg" xmlns:xlink="http://www.w3.org/1999/xlink" viewBox="0 0 292.24 138.09"><defs><style>.cls-1,.cls-12,.cls-14,.cls-18,.cls-21,.cls-23,.cls-8{fill:none;}.cls-2{fill:#d2e3fc;}.cls-3{fill:#4f4c4d;}.cls-4{fill:#689df6;}.cls-5{fill:#4285f4;}.cls-6{fill:#a0c2f9;}.cls-11,.cls-13,.cls-19,.cls-22,.cls-26,.cls-7,.cls-9{fill:#0059b2;}.cls-10,.cls-11,.cls-12,.cls-13,.cls-14,.cls-18,.cls-19,.cls-21,.cls-22,.cls-23,.cls-25,.cls-26,.cls-8,.cls-9{stroke:#0059b2;stroke-linecap:round;stroke-miterlimit:10;}.cls-8,.cls-9{stroke-width:0.57px;}.cls-10,.cls-25{fill:#92c8fc;}.cls-10,.cls-11{stroke-width:0.57px;}.cls-12,.cls-13{stroke-width:0.64px;}.cls-14{stroke-width:0.54px;}.cls-15{fill:#1769ad;}.cls-16{fill:#297ed3;}.cls-17{fill:#5e97f6;}.cls-18,.cls-19{stroke-width:0.3px;}.cls-20{fill:#2f7bea;}.cls-21,.cls-22{stroke-width:0.3px;}.cls-23{stroke-width:0.25px;}.cls-24{clip-path:url(#clip-path);}.cls-25,.cls-26{stroke-width:0.3px;}</style><clipPath id="clip-path"><rect class="cls-1" x="98.24" width="58" height="58"/></clipPath></defs><title>Collect</title><g id="Layer_2" data-name="Layer 2"><g id="Design"><rect class="cls-2" x="234.24" y="0.03" width="58" height="58" rx="2"/><rect class="cls-2" x="166.24" width="58" height="58" rx="2"/><rect class="cls-2" x="98.24" width="58" height="58" rx="2"/><rect class="cls-2" x="98.24" y="80.08" width="58" height="58" rx="2"/><rect class="cls-2" x="234.24" y="80.09" width="58" height="58" rx="2"/><rect class="cls-2" x="166.24" y="80.06" width="58" height="58" rx="2"/><path class="cls-3" d="M12.74,23.15a1.26,1.26,0,0,1-1.47.24,4.83,4.83,0,0,0-4-1.25c-1.43,0-4.43,1-4.43,5.5A4.67,4.67,0,0,0,7.53,32a4.6,4.6,0,0,0,3.23-1.18c.42-.36,1.65-1.15,2.51-.11a1.48,1.48,0,0,1,.24,1.91,5.75,5.75,0,0,1-3.79,2.27,7.33,7.33,0,0,1-4.13-.18A8.74,8.74,0,0,1,.75,30.35,8.92,8.92,0,0,1,0,26.89a8.87,8.87,0,0,1,.86-3.45,7.48,7.48,0,0,1,11.53-2.23C12.89,21.72,13.33,22.54,12.74,23.15Z"/><path class="cls-3" d="M17.14,20.11a1.09,1.09,0,0,1,1.82,0c.77,1.57.71,4.45.71,6.5,0,1.76,0,3.56,0,5.41,0,.94-.05,2.46-.84,2.86a1.44,1.44,0,0,1-1.52,0c-.81-.66-.85-2.29-.85-3.57V26C16.46,23.94,16.52,20.91,17.14,20.11Z"/><path class="cls-3" d="M30.6,35.32c-.55,0-1.3-.37-1.25-1.65-.71,1.54-3.81,1.89-5.55.92a3.38,3.38,0,0,1-1.58-3.21c0-2.73,3.72-4.6,7-3.12,0-.8.13-2.47-2.34-2.56a2.93,2.93,0,0,0-1.82.75c-.86.77-2.4.18-2.18-.92s1.91-1.94,3.39-2.22c2.31-.47,5.17.9,5.65,3.19a25,25,0,0,1,.15,3.82,36.36,36.36,0,0,1-.1,4A1.36,1.36,0,0,1,30.6,35.32Zm-3.12-2.79A2.33,2.33,0,0,0,29,30.35a4.76,4.76,0,0,0-2.51-.44c-.94.11-1.76.74-1.76,1.45C24.68,32.66,26.47,33,27.48,32.53Z"/><path class="cls-3" d="M41.34,26.28a3.88,3.88,0,0,0-2.8-.82c-.7.18-1,.57-1,1,0,1.21,1.74,1.3,3.54,2a3.89,3.89,0,0,1,1.89,1.41,3.44,3.44,0,0,1,.31,3c-.64,2-2.55,2.73-4.9,2.55a4.61,4.61,0,0,1-4.07-2.57,1.22,1.22,0,0,1,2.15-1.08,3,3,0,0,0,1.89,1.25c2.53.55,3.46-1.89,1.41-2.48a11.85,11.85,0,0,1-3.25-1.13,3.33,3.33,0,0,1-1.65-3,3.6,3.6,0,0,1,2.09-2.79,4.92,4.92,0,0,1,5.78,1.12A1.05,1.05,0,0,1,41.34,26.28Z"/><path class="cls-3" d="M52.32,26.28a3.88,3.88,0,0,0-2.8-.82c-.7.18-1,.57-1,1,0,1.21,1.74,1.3,3.54,2a3.89,3.89,0,0,1,1.89,1.41,3.48,3.48,0,0,1,.31,3c-.64,2-2.55,2.73-4.91,2.55a4.62,4.62,0,0,1-4.07-2.57,1.22,1.22,0,0,1,2.16-1.08,3,3,0,0,0,1.89,1.25c2.53.55,3.46-1.89,1.41-2.48a12,12,0,0,1-3.26-1.13,3.35,3.35,0,0,1-1.65-3,3.62,3.62,0,0,1,2.09-2.79,4.94,4.94,0,0,1,5.79,1.12A1.05,1.05,0,0,1,52.32,26.28Z"/><path class="cls-3" d="M65.85,35.21c-1.57-.42-1.24-2.35-1.24-3.57,0-3-.11-5.85,0-8.51a3.75,3.75,0,0,1-1.89.86.75.75,0,0,1-.71-.95c.27-1.21,1.58-2.11,2.55-2.81a2.11,2.11,0,0,1,1.26-.56,1.48,1.48,0,0,1,1.69,1.22A36.49,36.49,0,0,1,67.85,26c0,6.25,0,6.76,0,7.33C67.78,34.57,66.73,35.5,65.85,35.21Z"/><path class="cls-3" d="M12.74,103.23a1.26,1.26,0,0,1-1.47.24,4.8,4.8,0,0,0-4-1.25c-1.43,0-4.43,1-4.43,5.5a4.67,4.67,0,0,0,4.74,4.33,4.59,4.59,0,0,0,3.23-1.19c.42-.35,1.65-1.14,2.51-.11a1.5,1.5,0,0,1,.24,1.92,5.73,5.73,0,0,1-3.79,2.26,7.25,7.25,0,0,1-4.13-.17,8.76,8.76,0,0,1-4.84-4.34,7.82,7.82,0,0,1,.11-6.91,7.47,7.47,0,0,1,11.53-2.22C12.89,101.8,13.33,102.61,12.74,103.23Z"/><path class="cls-3" d="M17.14,100.19a1.08,1.08,0,0,1,1.82,0c.77,1.56.71,4.45.71,6.49,0,1.76,0,3.57,0,5.41,0,1-.05,2.47-.84,2.87a1.48,1.48,0,0,1-1.52,0c-.81-.66-.85-2.29-.85-3.57V106C16.46,104,16.52,101,17.14,100.19Z"/><path class="cls-3" d="M30.6,115.4c-.55,0-1.3-.38-1.25-1.65-.71,1.54-3.81,1.89-5.55.92a3.39,3.39,0,0,1-1.58-3.21c0-2.73,3.72-4.6,7-3.13,0-.79.13-2.46-2.34-2.55a2.88,2.88,0,0,0-1.82.75c-.86.77-2.4.17-2.18-.93s1.91-1.93,3.39-2.22c2.31-.46,5.17.9,5.65,3.19a25.22,25.22,0,0,1,.15,3.83,36.12,36.12,0,0,1-.1,4A1.37,1.37,0,0,1,30.6,115.4Zm-3.12-2.8A2.31,2.31,0,0,0,29,110.42a4.86,4.86,0,0,0-2.51-.44c-.94.11-1.76.75-1.76,1.45C24.68,112.73,26.47,113.09,27.48,112.6Z"/><path class="cls-3" d="M41.34,106.35a3.82,3.82,0,0,0-2.8-.81c-.7.17-1,.57-1,1,0,1.21,1.74,1.3,3.54,2a3.93,3.93,0,0,1,1.89,1.4,3.45,3.45,0,0,1,.31,3c-.64,2-2.55,2.73-4.9,2.56a4.62,4.62,0,0,1-4.07-2.58,1.22,1.22,0,0,1,2.15-1.08A3,3,0,0,0,38.32,113c2.53.55,3.46-1.89,1.41-2.49a11.83,11.83,0,0,1-3.25-1.12,3.34,3.34,0,0,1-1.65-3,3.59,3.59,0,0,1,2.09-2.79,4.91,4.91,0,0,1,5.78,1.12A1,1,0,0,1,41.34,106.35Z"/><path class="cls-3" d="M52.32,106.35a3.82,3.82,0,0,0-2.8-.81c-.7.17-1,.57-1,1,0,1.21,1.74,1.3,3.54,2a3.93,3.93,0,0,1,1.89,1.4,3.48,3.48,0,0,1,.31,3c-.64,2-2.55,2.73-4.91,2.56a4.63,4.63,0,0,1-4.07-2.58,1.22,1.22,0,0,1,2.16-1.08A3,3,0,0,0,49.3,113c2.53.55,3.46-1.89,1.41-2.49a12,12,0,0,1-3.26-1.12,3.36,3.36,0,0,1-1.65-3,3.61,3.61,0,0,1,2.09-2.79,4.92,4.92,0,0,1,5.79,1.12A1,1,0,0,1,52.32,106.35Z"/><path class="cls-3" d="M70.47,115.26c-.29,0-.62-.06-3.85-.06-1.28,0-3.31.13-3.85-.33a1.44,1.44,0,0,1-.51-2c1.19-1.8,3.92-4.42,5.87-6.93a2.32,2.32,0,0,0,.51-2.06,2,2,0,0,0-2.13-1.39c-1.35,0-1.1,1.25-2.62,1.72a1.11,1.11,0,0,1-1.35-.77c-.28-.82.4-1.83.93-2.38a4.9,4.9,0,0,1,6.49-.42,4.77,4.77,0,0,1,1.56,3.26,4.94,4.94,0,0,1-1.1,3.69,58.83,58.83,0,0,1-3.87,4.65c.68,0,1.32-.14,2.07-.18,1.36-.07,2.37-.29,3,.37a1.73,1.73,0,0,1,.53,1.15A1.84,1.84,0,0,1,70.47,115.26Z"/><path class="cls-4" d="M109.34,138.06h35.8v-.13a49.71,49.71,0,0,0-2.36-18.07,41.32,41.32,0,0,0-.85-9.1l-11.61-9.08-16.69,9.68h0a18.23,18.23,0,0,0-1.92,8.49,49.85,49.85,0,0,0-2.35,18.07Z"/><path class="cls-5" d="M124.32,85.73A17.21,17.21,0,0,0,115.49,95c-2.56,6.06-6.11,12.39-8.84,14.42a.44.44,0,0,1-.67-.53,5.38,5.38,0,0,0-.67-5c-2.27-3.46-4.17-9.68-.79-12.52C107.4,89,117.22,85,121,84.24a2.6,2.6,0,0,1,2,.49Z"/><path class="cls-5" d="M144.31,94.54a17.23,17.23,0,0,1-.9,12.79c-2.75,6-5,12.87-4.69,16.25a.45.45,0,0,0,.85.14,5.39,5.39,0,0,1,4.17-2.9c4.08-.65,10-3.45,9.77-7.86-.17-3.75-3.85-13.69-5.83-16.93a2.55,2.55,0,0,0-1.74-1.18Z"/><path class="cls-6" d="M141.51,111.8a13,13,0,0,1-8.08,6.46c-.09.15-.19.3-.28.46a6.34,6.34,0,0,1-8.23,3.08,7.25,7.25,0,0,1-3.44-2.56,7.14,7.14,0,0,1-4.21-.82,6.34,6.34,0,0,1-3.29-8.15c.06-.17.11-.34.16-.51a13,13,0,0,1-.68-10.32c.72-1.45,1.4-2.94,2-4.42a17.37,17.37,0,0,1,8.82-9.29h0a16.44,16.44,0,0,1,20,8.82,17.2,17.2,0,0,1-.9,12.78C142.74,108.79,142.09,110.3,141.51,111.8Z"/><path class="cls-7" d="M124.93,121.8c-.6.71-2.5.63-4.47-.24s-3.31-2.22-3.19-3.14a7.14,7.14,0,0,0,4.21.82A7.24,7.24,0,0,0,124.93,121.8Z"/><path class="cls-7" d="M127.67,115.58A4.19,4.19,0,1,1,120,112.2c.6-1.36,2.81-1.71,4.92-.78S128.27,114.22,127.67,115.58Z"/><path class="cls-8" d="M135.45,103.23a2.36,2.36,0,0,1,1.7,0,3,3,0,0,1,1.58,1.27,13.21,13.21,0,0,1,.62,1.3"/><path class="cls-9" d="M138.56,105.53a2.08,2.08,0,0,1-3.48.51,2,2,0,0,1-.32-2.17h0a1.12,1.12,0,0,1,.49-.54,2.28,2.28,0,0,1,1.9-.07,2.8,2.8,0,0,1,.94.53,1.56,1.56,0,0,1,.51,1.64A.49.49,0,0,1,138.56,105.53Z"/><path class="cls-8" d="M123.88,98.13a2.35,2.35,0,0,0-1.15-1.24,3,3,0,0,0-2-.31,13,13,0,0,0-1.36.42"/><path class="cls-9" d="M120.09,97.38a2.09,2.09,0,0,0,2,2.92,2,2,0,0,0,1.82-1.23h0a1.18,1.18,0,0,0,.06-.72,2.28,2.28,0,0,0-1.22-1.45,2.91,2.91,0,0,0-1-.34,1.57,1.57,0,0,0-1.56.73A.93.93,0,0,0,120.09,97.38Z"/><path class="cls-4" d="M245.33,138.09h35.8c0-.09,0-.16,0-.16a49.71,49.71,0,0,0-2.36-18.07,18.16,18.16,0,0,0-1.91-8.49v0a11.56,11.56,0,0,0,1.7-5.58v0c-.07-1.6-.09-3.24-.06-4.83a17.51,17.51,0,0,0-4.22-12l-.1-.09v0a16.46,16.46,0,0,0-21.85,0v0a17.25,17.25,0,0,0-4.33,12c0,1.61,0,3.25-.06,4.86h0v0a11.62,11.62,0,0,0,1.7,5.55h0a18.23,18.23,0,0,0-1.92,8.49,49.85,49.85,0,0,0-2.35,18.07Z"/><path class="cls-5" d="M252.31,88.85A17.25,17.25,0,0,0,248,100.91c.11,6.58-.59,13.8-2.26,16.77a.45.45,0,0,1-.83-.21,5.39,5.39,0,0,0-2.65-4.34c-3.47-2.25-7.72-7.18-5.76-11.14,1.66-3.37,9-11,12.15-13.14a2.63,2.63,0,0,1,2.08-.38Z"/><path class="cls-5" d="M274.16,88.85a17.27,17.27,0,0,1,4.33,12.06c-.11,6.58.6,13.8,2.27,16.77a.45.45,0,0,0,.83-.21,5.35,5.35,0,0,1,2.64-4.34C287.7,110.88,292,106,290,102c-1.67-3.37-9-11-12.16-13.14a2.61,2.61,0,0,0-2.07-.38Z"/><path class="cls-6" d="M278.55,105.77a13,13,0,0,1-4.78,9.17c0,.18,0,.35-.07.54a6.33,6.33,0,0,1-6.29,6.13,7.15,7.15,0,0,1-4.18-1,7.21,7.21,0,0,1-4.19,1,6.34,6.34,0,0,1-6.29-6.13l-.06-.54a13,13,0,0,1-4.79-9.17c.07-1.61.1-3.25.07-4.85a17.27,17.27,0,0,1,4.32-12,0,0,0,0,0,0,0,16.47,16.47,0,0,1,21.86,0,17.28,17.28,0,0,1,4.33,12.07C278.46,102.52,278.48,104.16,278.55,105.77Z"/><path class="cls-7" d="M267.41,121.61c-.26.89-2,1.58-4.18,1.58s-3.93-.69-4.19-1.58a7.19,7.19,0,0,0,4.19-1A7.15,7.15,0,0,0,267.41,121.61Z"/><path class="cls-7" d="M267.41,114.81a4.19,4.19,0,1,1-8.37,0c0-1.49,1.88-2.7,4.19-2.7S267.41,113.32,267.41,114.81Z"/><path class="cls-10" d="M269.55,100.37a2.49,2.49,0,0,1,1.56-.67,3.06,3.06,0,0,1,2,.53h0a5.55,5.55,0,0,1,1.08.93"/><path class="cls-11" d="M273.33,101.22a2.09,2.09,0,0,1-3,1.88,2,2,0,0,1-1.17-1.86v0a1.14,1.14,0,0,1,.23-.68,2.3,2.3,0,0,1,1.7-.84,2.89,2.89,0,0,1,1.07.11,1.58,1.58,0,0,1,1.14,1.3S273.33,101.19,273.33,101.22Z"/><path class="cls-10" d="M256.91,100.37a2.47,2.47,0,0,0-1.56-.67,3,3,0,0,0-2,.53h0a5.27,5.27,0,0,0-1.08.93"/><path class="cls-11" d="M253.14,101.22a2.09,2.09,0,0,0,3,1.88,2.05,2.05,0,0,0,1.17-1.86v0a1.14,1.14,0,0,0-.23-.68,2.33,2.33,0,0,0-1.71-.84,2.91,2.91,0,0,0-1.07.11,1.55,1.55,0,0,0-1.13,1.3A.45.45,0,0,0,253.14,101.22Z"/><path class="cls-5" d="M209.24,88.88a3.64,3.64,0,0,1,3.8.85,12.75,12.75,0,0,1,1.72,3.32,46.75,46.75,0,0,1,3.29,16.61c.06,3.68-.08,7.33-.89,7.76-1.68.9-4.46-4.54-4.46-4.54Z"/><path class="cls-4" d="M214.21,138.09A51.66,51.66,0,0,0,211.63,124a20,20,0,0,0-.13-2.73h0a2.47,2.47,0,0,0,1.21-.09,2.83,2.83,0,0,0,.6-.21c4.89-2.18.71-11.26.71-11.26.74-2,.84-6.88.84-6.88.14-7.81-3.05-12.34-4.3-13.36l-.12-.11h0a18.37,18.37,0,0,0-24.43,0h0a14.83,14.83,0,0,0-2.05,2.75,36,36,0,0,1,3-2.55,3.5,3.5,0,0,1,2.87-.58l.83.19a.57.57,0,0,1,.39.8c-.66,1.41-2.09,5.24-2,11.86.1,6-.4,12.54-1.62,16.52a1.2,1.2,0,0,1-2.27,0,6.27,6.27,0,0,0-2.52-2.9c-.91-.58-2-1.27-3.1-2.06A24.07,24.07,0,0,0,176.89,124a51.19,51.19,0,0,0-2.58,14.08Z"/><path class="cls-6" d="M213.3,121l-.29.12a2.45,2.45,0,0,1-.32.09,2.89,2.89,0,0,1-.82.13,2.1,2.1,0,0,1-.37,0h0c-1.54-.26-2-2-2-2s-1.63,2.58-7.55,2.58S191.84,115,191.84,115s-1.23-1.9-3-4.87c.22-2.67.3-5.54.25-8.3-.11-6.62,1.32-10.45,2-11.86a.57.57,0,0,0-.39-.8l-.83-.19a3.5,3.5,0,0,0-2.87.58,36,36,0,0,0-3,2.55,14.83,14.83,0,0,1,2-2.75h0a18.37,18.37,0,0,1,24.43,0h0l.12.11c1.25,1,4.44,5.55,4.3,13.36,0,0-.1,4.86-.84,6.88C214,109.71,218.19,118.79,213.3,121Z"/><path class="cls-7" d="M211.57,122.16h0v0s-5.44,3.38-10.79-.46a7.85,7.85,0,0,0,1.19.09c5.92,0,7.56-2.58,7.56-2.58s.44,1.77,2,2h0C211.53,121.57,211.56,121.86,211.57,122.16Z"/><path class="cls-5" d="M190.64,89.17a.57.57,0,0,1,.39.8c-.66,1.41-2.08,5.23-2,11.86.1,6-.41,12.54-1.63,16.52a1.2,1.2,0,0,1-2.27,0,6.43,6.43,0,0,0-2.52-2.9c-3.88-2.51-11.18-7-9-11.46,1.81-3.65,9.65-11.79,13.29-14.47a3.47,3.47,0,0,1,2.88-.58Z"/><path class="cls-7" d="M213.88,113.32a4,4,0,1,1-8.09,0c0-1.44,1.81-2.61,4-2.61S213.88,111.88,213.88,113.32Z"/><path class="cls-12" d="M199.38,102.22a2.69,2.69,0,0,0-1.74-.74,3.38,3.38,0,0,0-2.2.59,15.07,15.07,0,0,0-1.21,1.05"/><path class="cls-13" d="M195.17,103.17a2.33,2.33,0,0,0,3.33,2.1,2.24,2.24,0,0,0,1.3-2.08h0a1.25,1.25,0,0,0-.25-.77,2.6,2.6,0,0,0-1.91-.93,3,3,0,0,0-1.2.12,1.75,1.75,0,0,0-1.27,1.45Z"/><path class="cls-14" d="M209.59,102.26a2.25,2.25,0,0,1,1.45-.62,2.77,2.77,0,0,1,1.83.49,11.63,11.63,0,0,1,1,.87"/><path class="cls-13" d="M213.1,103.05a1.94,1.94,0,0,1-2.77,1.75,1.87,1.87,0,0,1-1.09-1.73v0a1,1,0,0,1,.21-.63,2.16,2.16,0,0,1,1.59-.78,2.55,2.55,0,0,1,1,.1,1.45,1.45,0,0,1,1.05,1.21A.34.34,0,0,1,213.1,103.05Z"/><path class="cls-15" d="M210,34a15.21,15.21,0,0,1-4.42,7.69,7,7,0,0,0-.79-1.48h0c-.08-1.74-.1-3-.1-3a6.42,6.42,0,0,0,3.11-4.08c.78-3.48,1.89-5.91,2.44-5.15C211,29.66,210.76,30.36,210,34Z"/><path class="cls-15" d="M278,34a15.26,15.26,0,0,1-4.43,7.7,7.3,7.3,0,0,0-.78-1.48h0c-.08-1.74-.1-3-.1-3a6.38,6.38,0,0,0,3.11-4.09c.78-3.47,1.89-5.9,2.44-5.14C279,29.64,278.75,30.35,278,34Z"/><path class="cls-16" d="M206.26,51c-.92-1.56-1.32-7.26-1.48-10.83,0,0,1.25,1.57,2.09,5.95h0c0,.22.08.43.13.64a13.4,13.4,0,0,0,.92,2.72,7.45,7.45,0,0,0,.48.9c.13.23.38.22.63.16,3.16-.78,2.56,3.58,2.45,3.58h-2a3.14,3.14,0,0,0-.88-2.6,1.93,1.93,0,0,0-1.68-.2.63.63,0,0,1-.66-.31Z"/><path class="cls-16" d="M184.2,51c.92-1.56,1.31-7.26,1.48-10.83,0,0-1.26,1.57-2.09,5.95h0c0,.22-.09.43-.13.64a14,14,0,0,1-.92,2.72,9.19,9.19,0,0,1-.48.9c-.14.23-.38.22-.64.16-3.16-.78-2.55,3.58-2.45,3.58h2a3.11,3.11,0,0,1,.88-2.6,1.93,1.93,0,0,1,1.68-.2.64.64,0,0,0,.66-.31Z"/><path class="cls-5" d="M209.37,54.92h-7.76a1.53,1.53,0,0,1-1.31-.69,1.35,1.35,0,0,1-.21-.7c0-1,.42-1.54,0-2.27a8.75,8.75,0,0,1-4.86,1.24,10.41,10.41,0,0,1-3.59-.61,6.87,6.87,0,0,1-1.26-.63c-.42.73,0,1.26,0,2.27a1.35,1.35,0,0,1-.22.7,1.5,1.5,0,0,1-1.31.69H181.1a2,2,0,0,1-.11-.77c-.05-1.22.25-3.38,2.55-2.81a.63.63,0,0,0,.66-.31c.92-1.56,1.32-7.26,1.48-10.83.08-1.74.11-3,.11-3A26.36,26.36,0,0,1,187,27.69a9.61,9.61,0,0,1,1-4.48h0l8.81-5.11,6.14,4.8a21.61,21.61,0,0,1,.44,4.8,26.21,26.21,0,0,1,1.25,9.54s.22,11.49,1.59,13.8a.62.62,0,0,0,.65.31C210.08,50.56,209.48,54.92,209.37,54.92Z"/><path class="cls-6" d="M193.69,9.67a9.13,9.13,0,0,0-4.66,4.9c-1.35,3.21-3.23,6.55-4.67,7.62a.23.23,0,0,1-.35-.28,2.87,2.87,0,0,0-.36-2.66c-1.19-1.82-2.2-5.11-.41-6.61,1.52-1.27,6.7-3.37,8.67-3.75a1.35,1.35,0,0,1,1.08.25Z"/><path class="cls-6" d="M204.25,14.32a9.1,9.1,0,0,1-.48,6.76c-1.45,3.15-2.65,6.79-2.47,8.58a.23.23,0,0,0,.44.07A2.85,2.85,0,0,1,204,28.2c2.15-.35,5.25-1.83,5.15-4.15-.08-2-2-7.23-3.07-8.94a1.4,1.4,0,0,0-.92-.63Z"/><path class="cls-17" d="M202.77,23.43a6.84,6.84,0,0,1-4.27,3.41l-.14.25A3.35,3.35,0,0,1,194,28.71a3.76,3.76,0,0,1-1.82-1.35,3.78,3.78,0,0,1-2.22-.43,3.34,3.34,0,0,1-1.74-4.3l.09-.27a6.82,6.82,0,0,1-.36-5.45c.38-.77.74-1.55,1.07-2.34a9.14,9.14,0,0,1,4.65-4.9h0a8.7,8.7,0,0,1,10.56,4.65,9.1,9.1,0,0,1-.48,6.76C203.42,21.84,203.08,22.64,202.77,23.43Z"/><path class="cls-7" d="M194,28.71c-.31.38-1.31.34-2.36-.12s-1.74-1.17-1.68-1.66a3.79,3.79,0,0,0,2.22.44A3.86,3.86,0,0,0,194,28.71Z"/><path class="cls-7" d="M195.46,25.43a2.21,2.21,0,1,1-4-1.78c.31-.72,1.48-.91,2.59-.42S195.78,24.71,195.46,25.43Z"/><path class="cls-18" d="M199.57,18.91a1.32,1.32,0,0,1,.9,0,1.58,1.58,0,0,1,.83.67,6.83,6.83,0,0,1,.33.69"/><path class="cls-19" d="M201.21,20.12a1.1,1.1,0,1,1-2-.87h0a.57.57,0,0,1,.25-.28,1.26,1.26,0,0,1,1,0,1.39,1.39,0,0,1,.49.28.82.82,0,0,1,.27.87A.08.08,0,0,1,201.21,20.12Z"/><path class="cls-18" d="M193.46,16.22a1.22,1.22,0,0,0-.61-.66,1.58,1.58,0,0,0-1.06-.16,6.24,6.24,0,0,0-.72.22"/><path class="cls-19" d="M191.46,15.82a1.1,1.1,0,0,0,1,1.54,1,1,0,0,0,1-.65h0a.55.55,0,0,0,0-.38,1.25,1.25,0,0,0-.65-.77,1.36,1.36,0,0,0-.54-.17.8.8,0,0,0-.82.38Z"/><path class="cls-20" d="M200.08,51.26h0l-.16.1-.12.07a7.26,7.26,0,0,1-1.45.61l-.3.09a2.37,2.37,0,0,1-.36.09l-.19.05-.19,0a8.69,8.69,0,0,1-1.09.15l-.2,0c-.25,0-.51,0-.77,0s-.54,0-.78,0h-.16l-.56-.06-.23,0-.21,0-.29-.06-.27-.06h0l-.18-.05c-.2,0-.38-.1-.55-.16l-.17-.06-.32-.12-.2-.08-.17-.08h0l-.29-.15h0l-.08,0-.14-.08h0l-.17-.11h0a2.93,2.93,0,0,0,.16-1.57,6.87,6.87,0,0,1,.13-2.17c.2-.87.47-4,.71-6.78a3.87,3.87,0,0,1,3.86-3.54h0a3.86,3.86,0,0,1,3.85,3.54c.24,2.75.51,5.91.71,6.78a6.87,6.87,0,0,1,.14,2.17A2.94,2.94,0,0,0,200.08,51.26Z"/><path class="cls-6" d="M270.31,11.09a1.72,1.72,0,0,1,1.79.4,5.55,5.55,0,0,1,.82,1.57,22.11,22.11,0,0,1,1.55,7.84c0,1.74,0,3.46-.42,3.66-.79.43-2.1-2.14-2.1-2.14Z"/><path class="cls-5" d="M277.37,54.91h-7.75a1.53,1.53,0,0,1-1.31-.69,1.38,1.38,0,0,1-.22-.7c0-1,.42-1.55,0-2.27a8.73,8.73,0,0,1-4.85,1.24,10.16,10.16,0,0,1-3.6-.62,6.53,6.53,0,0,1-1.26-.62c-.42.72.05,1.25,0,2.27a1.48,1.48,0,0,1-.21.7,1.55,1.55,0,0,1-1.31.69H249.1a2.29,2.29,0,0,1-.11-.78,3.11,3.11,0,0,1,.91-2.64,2,2,0,0,1,.42-.19l.25,0a2.59,2.59,0,0,1,1,.08.53.53,0,0,0,.28,0,.67.67,0,0,0,.39-.29c.91-1.56,1.32-7.27,1.48-10.84.08-1.73.1-3,.1-3A26.21,26.21,0,0,1,255,27.68a11.37,11.37,0,0,1,1.25-5c.53.37,1,.7,1.47,1A3,3,0,0,1,259,25,.57.57,0,0,0,260,25a28.67,28.67,0,0,0,.77-7.8,12.79,12.79,0,0,1,.93-5.6.28.28,0,0,0-.18-.38l-.4-.09a1.63,1.63,0,0,0-1.35.28,18,18,0,0,0-1.42,1.2,7.27,7.27,0,0,1,1-1.3h0a8.67,8.67,0,0,1,11.54,0h0l.05.06c.6.48,2.1,2.62,2,6.31a14.64,14.64,0,0,1-.4,3.24s2,4.29-.34,5.32l-.28.1a1.28,1.28,0,0,1-.57,0h0a8.86,8.86,0,0,1,.06,1.29,26.48,26.48,0,0,1,1.25,9.54s.21,11.49,1.58,13.8a.84.84,0,0,0,.15.18h0a.42.42,0,0,0,.22.11.5.5,0,0,0,.27,0,2.35,2.35,0,0,1,1.23,0C277.89,51.81,277.45,54.91,277.37,54.91Z"/><path class="cls-17" d="M272.23,26.24l-.14.06-.15,0a1.43,1.43,0,0,1-.39.06l-.17,0h0c-.72-.12-.94-1-.94-1s-.76,1.22-3.56,1.22-4.77-3.22-4.77-3.22-.58-.9-1.44-2.3a39.11,39.11,0,0,0,.12-3.92,12.74,12.74,0,0,1,.94-5.6.28.28,0,0,0-.19-.38l-.39-.09a1.65,1.65,0,0,0-1.36.28,18,18,0,0,0-1.42,1.2,7,7,0,0,1,1-1.3h0a8.67,8.67,0,0,1,11.54,0h0l.05.06c.59.48,2.1,2.62,2,6.31a15.08,15.08,0,0,1-.39,3.24S274.54,25.21,272.23,26.24Z"/><path class="cls-7" d="M271.41,26.8h0v0a4.78,4.78,0,0,1-5.1-.22,3.52,3.52,0,0,0,.56,0c2.8,0,3.57-1.22,3.57-1.22s.21.84.94,1h0C271.39,26.53,271.41,26.66,271.41,26.8Z"/><path class="cls-6" d="M261.53,11.23a.27.27,0,0,1,.19.37,12.74,12.74,0,0,0-.94,5.6A28.28,28.28,0,0,1,260,25a.57.57,0,0,1-1.07,0,3,3,0,0,0-1.19-1.37c-1.83-1.18-5.27-3.32-4.24-5.41.85-1.72,4.55-5.57,6.27-6.83a1.65,1.65,0,0,1,1.36-.28Z"/><path class="cls-7" d="M272.5,22.63a1.91,1.91,0,1,1-3.82,0c0-.68.86-1.23,1.91-1.23S272.5,22,272.5,22.63Z"/><path class="cls-21" d="M265.66,17.39a1.21,1.21,0,0,0-.83-.35,1.6,1.6,0,0,0-1,.27,5.85,5.85,0,0,0-.57.5"/><path class="cls-22" d="M263.67,17.84a1.1,1.1,0,0,0,1.57,1,1.08,1.08,0,0,0,.62-1h0a.65.65,0,0,0-.12-.36,1.22,1.22,0,0,0-.91-.44,1.49,1.49,0,0,0-.56.05.84.84,0,0,0-.6.69Z"/><path class="cls-23" d="M270.48,17.41a1,1,0,0,1,.68-.3,1.38,1.38,0,0,1,.87.23,4.77,4.77,0,0,1,.47.42"/><path class="cls-22" d="M272.14,17.78a.92.92,0,0,1-1.31.82.88.88,0,0,1-.52-.81h0a.54.54,0,0,1,.1-.3,1,1,0,0,1,.75-.37,1.2,1.2,0,0,1,.47.05.68.68,0,0,1,.5.57S272.14,17.76,272.14,17.78Z"/><path class="cls-16" d="M274.26,51c-.92-1.56-1.32-7.27-1.48-10.84,0,0,1.25,1.58,2.09,6h0c0,.22.08.43.13.63a13.19,13.19,0,0,0,.92,2.72,7.4,7.4,0,0,0,.47.9c.14.23.38.22.64.16,3.16-.78,2.55,3.59,2.45,3.59h-2a3.2,3.2,0,0,0-.88-2.61,2,2,0,0,0-1.69-.2.6.6,0,0,1-.65-.3Z"/><path class="cls-16" d="M252.19,51c.92-1.56,1.32-7.27,1.49-10.84,0,0-1.26,1.58-2.1,6h0c0,.22-.09.43-.14.63a13.23,13.23,0,0,1-.91,2.72,7.35,7.35,0,0,1-.48.9c-.14.23-.38.22-.64.16-3.16-.78-2.55,3.59-2.45,3.59h2a3.13,3.13,0,0,1,.88-2.61,2,2,0,0,1,1.68-.2.6.6,0,0,0,.65-.3Z"/><path class="cls-20" d="M268.08,51.24l0,0-.16.1-.13.07a7.12,7.12,0,0,1-1.44.61l-.31.09-.35.09-.19,0-.2,0a8.28,8.28,0,0,1-1.08.15l-.21,0c-.24,0-.5,0-.77,0s-.53,0-.78,0l-.16,0a4.63,4.63,0,0,1-.55-.06l-.23,0-.21,0-.29,0-.28-.06h0l-.18-.05L260,52l-.17-.06-.32-.12-.2-.08-.18-.09h0l-.3-.15a0,0,0,0,1,0,0l-.09,0-.13-.08h0l-.17-.12h0a3,3,0,0,0,.16-1.56,6.59,6.59,0,0,1,.13-2.17c.2-.87.47-4,.71-6.78a3.87,3.87,0,0,1,3.85-3.55h0a3.88,3.88,0,0,1,3.86,3.55c.24,2.75.51,5.91.71,6.78a6.87,6.87,0,0,1,.13,2.17A3,3,0,0,0,268.08,51.24Z"/><g class="cls-24"><path class="cls-15" d="M142,34a15.24,15.24,0,0,1-4.42,7.7,7,7,0,0,0-.79-1.48h0c-.08-1.74-.11-3-.11-3a6.43,6.43,0,0,0,3.12-4.09c.78-3.47,1.89-5.9,2.43-5.14C143,29.64,142.76,30.35,142,34Z"/><path class="cls-5" d="M141.37,54.91h-7.76a1.55,1.55,0,0,1-1.31-.69,1.38,1.38,0,0,1-.21-.7c0-1,.42-1.54,0-2.27a8.75,8.75,0,0,1-4.86,1.24,10.14,10.14,0,0,1-3.59-.62,6.53,6.53,0,0,1-1.26-.62c-.42.73,0,1.25,0,2.27a1.38,1.38,0,0,1-.22.7,1.53,1.53,0,0,1-1.31.69H113.1a2.29,2.29,0,0,1-.11-.78c0-1.21.25-3.37,2.55-2.81a.61.61,0,0,0,.66-.3c.92-1.56,1.32-7.27,1.48-10.83.08-1.74.11-3,.11-3A26.36,26.36,0,0,1,119,27.68a9.61,9.61,0,0,1,1-4.48h0a6.22,6.22,0,0,1-.9-2.93v0h0c0-.85,0-1.71,0-2.56a9.16,9.16,0,0,1,2.28-6.37h0a8.65,8.65,0,0,1,11.53,0h0l.05.06a9.15,9.15,0,0,1,2.23,6.31c0,.84,0,1.7,0,2.55h0a6.3,6.3,0,0,1-.9,3h0a9.47,9.47,0,0,1,1,4.48,26.21,26.21,0,0,1,1.25,9.54s.22,11.49,1.59,13.8a.6.6,0,0,0,.65.3C142.08,50.55,141.48,54.91,141.37,54.91Z"/><path class="cls-16" d="M138.26,51c-.92-1.56-1.32-7.27-1.48-10.83,0,0,1.25,1.57,2.09,6h0c0,.22.08.43.13.64a13.29,13.29,0,0,0,.92,2.71,6.93,6.93,0,0,0,.48.91c.13.22.38.21.63.15,3.16-.78,2.56,3.59,2.45,3.59h-2a3.16,3.16,0,0,0-.88-2.61,2,2,0,0,0-1.68-.2.61.61,0,0,1-.66-.3Z"/><path class="cls-16" d="M116.2,51c.92-1.56,1.31-7.27,1.48-10.83,0,0-1.26,1.57-2.09,6h0c0,.22-.09.43-.13.64a13.93,13.93,0,0,1-.92,2.71,8.38,8.38,0,0,1-.48.91c-.14.22-.38.21-.64.15-3.16-.78-2.55,3.59-2.45,3.59h2a3.13,3.13,0,0,1,.88-2.61,2,2,0,0,1,1.68-.2.62.62,0,0,0,.66-.3Z"/><path class="cls-6" d="M121.47,11.31a9.09,9.09,0,0,0-2.29,6.37c.06,3.47-.31,7.28-1.2,8.85a.24.24,0,0,1-.44-.12,2.82,2.82,0,0,0-1.39-2.28c-1.83-1.19-4.08-3.8-3.05-5.89.88-1.77,4.78-5.79,6.42-6.93a1.38,1.38,0,0,1,1.1-.2Z"/><path class="cls-6" d="M133,11.31a9.11,9.11,0,0,1,2.28,6.37c-.06,3.47.32,7.28,1.2,8.85a.24.24,0,0,0,.44-.12,2.82,2.82,0,0,1,1.39-2.28c1.84-1.19,4.08-3.8,3.05-5.89-.88-1.77-4.77-5.79-6.42-6.93a1.38,1.38,0,0,0-1.1-.2Z"/><path class="cls-20" d="M132.09,51.24l0,0-.16.1-.13.07a7.12,7.12,0,0,1-1.44.61l-.31.09-.35.09-.19,0-.2,0a8.2,8.2,0,0,1-1.09.15l-.2,0-.77,0-.78,0-.16,0a4.63,4.63,0,0,1-.55-.06l-.23,0-.21,0-.29,0-.28-.06h0l-.18-.05L124,52l-.17-.06-.32-.12-.2-.08-.18-.09h0l-.3-.15a0,0,0,0,1,0,0l-.09,0-.13-.08h0l-.17-.12h0a3,3,0,0,0,.16-1.57,6.54,6.54,0,0,1,.13-2.16c.2-.87.47-4,.71-6.78a3.87,3.87,0,0,1,3.85-3.55h0a3.88,3.88,0,0,1,3.86,3.55c.24,2.74.51,5.91.71,6.78a6.82,6.82,0,0,1,.13,2.16A3,3,0,0,0,132.09,51.24Z"/><path class="cls-17" d="M135.32,20.24a6.81,6.81,0,0,1-2.52,4.84c0,.09,0,.19,0,.29a3.33,3.33,0,0,1-3.32,3.23,3.82,3.82,0,0,1-2.21-.5,3.78,3.78,0,0,1-2.21.5,3.34,3.34,0,0,1-3.32-3.23l0-.29a6.86,6.86,0,0,1-2.53-4.84c0-.85,0-1.72,0-2.56a9.11,9.11,0,0,1,2.28-6.37h0a8.67,8.67,0,0,1,11.54,0,9.09,9.09,0,0,1,2.29,6.37C135.28,18.52,135.29,19.39,135.32,20.24Z"/><path class="cls-7" d="M129.44,28.6c-.13.47-1.07.84-2.21.84s-2.07-.37-2.21-.84a3.78,3.78,0,0,0,2.21-.5A3.82,3.82,0,0,0,129.44,28.6Z"/><path class="cls-7" d="M129.44,25A2.21,2.21,0,1,1,125,25c0-.78,1-1.42,2.21-1.42S129.44,24.23,129.44,25Z"/><path class="cls-25" d="M130.57,17.39a1.26,1.26,0,0,1,.83-.35,1.54,1.54,0,0,1,1,.28h0a3,3,0,0,1,.58.49"/><path class="cls-26" d="M132.57,17.84a1.11,1.11,0,0,1-1.58,1,1.1,1.1,0,0,1-.62-1h0a.59.59,0,0,1,.13-.36,1.17,1.17,0,0,1,.9-.44,1.47,1.47,0,0,1,.56.05.82.82,0,0,1,.6.69S132.57,17.82,132.57,17.84Z"/><path class="cls-25" d="M123.9,17.39a1.21,1.21,0,0,0-.83-.35,1.55,1.55,0,0,0-1,.28h0a2.64,2.64,0,0,0-.57.49"/><path class="cls-26" d="M121.91,17.84a1.1,1.1,0,0,0,1.57,1,1.08,1.08,0,0,0,.62-1h0a.65.65,0,0,0-.12-.36,1.22,1.22,0,0,0-.91-.44,1.49,1.49,0,0,0-.56.05.84.84,0,0,0-.6.69Z"/></g></g></g></svg>