<svg xmlns="http://www.w3.org/2000/svg" xmlns:xlink="http://www.w3.org/1999/xlink" viewBox="0 0 234.39 189.1"><defs><style>.cls-1,.cls-18,.cls-3{fill:none;}.cls-17,.cls-2{fill:#d2e3fc;}.cls-3{stroke:#fff;stroke-width:2.5px;}.cls-15,.cls-16,.cls-17,.cls-18,.cls-3{stroke-linecap:round;}.cls-17,.cls-18,.cls-3{stroke-linejoin:round;}.cls-4{fill:#1967d2;}.cls-5{fill:#fff;}.cls-6{fill:#8eb6f8;}.cls-7{fill:#4285f4;}.cls-8{clip-path:url(#clip-path);}.cls-9{fill:#1769ad;}.cls-10{fill:#297ed3;}.cls-11{fill:#a0c2f9;}.cls-12{fill:#2f7bea;}.cls-13{fill:#5e97f6;}.cls-14,.cls-16{fill:#0059b2;}.cls-15{fill:#92c8fc;}.cls-15,.cls-16{stroke:#0059b2;stroke-miterlimit:10;stroke-width:0.23px;}.cls-17{stroke:#f8f9fa;stroke-width:5px;}.cls-18{stroke:#a7a5a6;stroke-width:2px;}.cls-19{clip-path:url(#clip-path-2);}</style><clipPath id="clip-path"><rect class="cls-1" x="76.08" y="52.67" width="44" height="44"/></clipPath><clipPath id="clip-path-2"><rect class="cls-1" x="172.91" y="91.91" width="44" height="44"/></clipPath></defs><title>Export</title><g id="Layer_2" data-name="Layer 2"><g id="Design"><rect class="cls-2" x="1.25" width="193.66" height="136.82" rx="8"/><line class="cls-3" x1="1.25" y1="18.52" x2="194.91" y2="18.52"/><circle class="cls-4" cx="9.9" cy="8.65" r="2.92"/><circle class="cls-4" cx="18.89" cy="8.65" r="2.92"/><circle class="cls-4" cx="27.89" cy="8.65" r="2.92"/><path class="cls-4" d="M52.29,43.33A1.34,1.34,0,0,1,51,41.93c0-1.38.06-4.88.06-6.86-1.22,2.58-2.48,5.9-3.84,7.16a1.15,1.15,0,0,1-1.38-.2,6,6,0,0,1-.9-1.44c-1.34-2.7-2.22-4.16-2.86-5.66,0,4.8,0,6.76-.52,7.74a1,1,0,0,1-1.74,0,7.77,7.77,0,0,1-.5-3.5c0-5.84.06-6.62.1-7.4,0-1,.08-2.32.62-2.82a1.21,1.21,0,0,1,1.66.1,10.47,10.47,0,0,1,1.48,2.58c1.18,2.26,2.4,4.52,3.38,6.72.72-1.36,1.24-3,2.08-4.46s1.48-3.06,2.36-4.5c.52-.86,2.42-.56,2.44.56,0,2.34.16,10.36.16,12A1.42,1.42,0,0,1,52.29,43.33Z"/><path class="cls-4" d="M60.55,42.45a5.31,5.31,0,0,1-.22-1.92c0-1.48-.06-2.86,0-4.18-1.26-1.64-2.1-2.46-3.3-4.18a3.33,3.33,0,0,1-.86-2.52,1.09,1.09,0,0,1,1.5-.7c.88.24,1.16,1,1.78,1.78.74,1,1.32,1.8,2.12,2.78.54-.66,1.66-2.54,2.78-4a2.09,2.09,0,0,1,1-.68c.86-.24,1.58.42,1.28,1.54-.56,1.88-2.32,4.16-3.62,5.92,0,.8,0,1.28,0,4.28a4,4,0,0,1-.4,1.92C62.21,43.13,60.81,43.13,60.55,42.45Z"/><path class="cls-4" d="M73.39,42.89a1.07,1.07,0,0,1-1-.82A43.85,43.85,0,0,1,72,35.89a31.35,31.35,0,0,1,.28-5.14,1,1,0,0,1,.34-1.52c3.58-1.8,8.56.1,8.56,4a4.7,4.7,0,0,1-.42,2.14,4.35,4.35,0,0,1-2.54,2.36,8.61,8.61,0,0,1-3.52.22,23.45,23.45,0,0,1-.24,4.16A1.14,1.14,0,0,1,73.39,42.89Zm1.28-7.54c.52,0,1,.08,1.54.08,1.8,0,2.5-1,2.34-2.42A2.07,2.07,0,0,0,77,31.23a7.35,7.35,0,0,0-2.6-.12A38.84,38.84,0,0,1,74.67,35.35Z"/><path class="cls-4" d="M91.45,42.55c-.4-.18-2-3.3-2.8-4.8l-1.08.1h-.34c.06,1.22.08,2.48.08,3.72A1.33,1.33,0,0,1,86,42.91c-.82.14-1.34-.68-1.34-1.34-.2-3.26-.34-6.18-.42-9.5a8,8,0,0,1,.06-1.2,2.63,2.63,0,0,1,.32-1.58,3.33,3.33,0,0,1,2.6-1c2.44,0,5,.58,6,2.72a4.85,4.85,0,0,1-.1,4.3,4.67,4.67,0,0,1-2,1.82c.6.86,1.2,1.72,1.88,2.78a4.11,4.11,0,0,1,.76,1.76,1.29,1.29,0,0,1-.82,1.18A1.25,1.25,0,0,1,91.45,42.55ZM91,33.15a2.15,2.15,0,0,0-1.3-2c-.66-.34-1.12-.36-2.86-.34.16,1.36.28,2.88.32,4.32a4.78,4.78,0,0,0,2.44-.26A2,2,0,0,0,91,33.15Z"/><path class="cls-4" d="M103.23,28.33a7.4,7.4,0,0,1,7.18,7.58,7.2,7.2,0,1,1-14.38,0A7.4,7.4,0,0,1,103.23,28.33Zm0,12.64a5.07,5.07,0,1,0-4.8-5.06A4.94,4.94,0,0,0,103.23,41Z"/><path class="cls-4" d="M113.37,39c.76,0,1,.68,1.64,1.18s.9.5,1.4.42c.26,0,.8-.26,1.2-1.08.82-1,.16-9.36.44-9.9a1.19,1.19,0,0,1,2.28,0c.26,1.16.22,6.62.22,8.24a5.75,5.75,0,0,1-1.4,4.32,3.49,3.49,0,0,1-2.24,1,6.17,6.17,0,0,1-1.92-.24c-1.46-.56-2.72-1.56-2.72-3A1,1,0,0,1,113.37,39Z"/><path class="cls-4" d="M125.37,42.79c-.94-.28-1-1.56-1.08-2.62-.2-3.56,0-6.26.06-9.66,0-.7,0-1.66.66-1.72a37.43,37.43,0,0,1,6.16-.18c.76.1,1.18.24,1.42.8a1.4,1.4,0,0,1-1.46,1.9l-4.46,0c0,1.22.12,2.1.08,3.36,3,0,3.58-.1,4.54.26a1,1,0,0,1-.06,1.9,24.49,24.49,0,0,1-4.5.14c0,.92,0,3,0,3.32,2.06,0,3.36-.14,4.88-.16a1.29,1.29,0,0,1,1.4,1.34c0,1.12-.74,1.28-1.4,1.36A34.37,34.37,0,0,1,125.37,42.79Z"/><path class="cls-4" d="M146.69,32a1.15,1.15,0,0,1-1.34.22,4.36,4.36,0,0,0-3.68-1.14c-1.3,0-4,.94-4,5a4.24,4.24,0,0,0,4.3,3.94A4.17,4.17,0,0,0,144.89,39c.38-.32,1.5-1,2.28-.1a1.36,1.36,0,0,1,.22,1.74A5.22,5.22,0,0,1,144,42.67a6.67,6.67,0,0,1-3.76-.16,8,8,0,0,1-4.4-3.94,8.05,8.05,0,0,1-.68-3.14,8.07,8.07,0,0,1,.78-3.14,6.79,6.79,0,0,1,10.48-2C146.83,30.73,147.23,31.47,146.69,32Z"/><path class="cls-4" d="M154.61,42.93a1.08,1.08,0,0,1-1-.76,9.44,9.44,0,0,1-.36-3.18c0-1.24,0-4.5,0-7.42-1.4,0-3.06.12-3.72-.82a1,1,0,0,1,0-1c.48-.78,1.46-.84,2.54-.86,2,0,4-.06,6.06-.06a1.4,1.4,0,0,1,1.32,1.32,1.37,1.37,0,0,1-1.32,1.38c-.76,0-1.5,0-2.24,0,0,2.88,0,6.12,0,7.32a8.74,8.74,0,0,1-.36,3.3A1.09,1.09,0,0,1,154.61,42.93Z"/><rect class="cls-5" x="71.4" y="119.11" width="53.36" height="8.37" rx="1"/><rect class="cls-6" x="71.4" y="119.11" width="6.57" height="8.37" rx="1"/><rect class="cls-5" x="71.4" y="105.13" width="53.36" height="8.37" rx="1"/><rect class="cls-7" x="71.4" y="105.13" width="46.79" height="8.37" rx="1"/><rect class="cls-5" x="76.08" y="52.67" width="44" height="44"/><g class="cls-8"><path class="cls-9" d="M109.28,78.45a11.58,11.58,0,0,1-3.36,5.83,5.41,5.41,0,0,0-.6-1.12h0c-.06-1.32-.08-2.25-.08-2.25a4.88,4.88,0,0,0,2.36-3.1c.6-2.64,1.44-4.48,1.85-3.91C110.06,75.16,109.86,75.69,109.28,78.45Z"/><path class="cls-7" d="M108.8,94.33h-5.89a1.18,1.18,0,0,1-1-.52,1.11,1.11,0,0,1-.16-.54c0-.77.31-1.17,0-1.72a6.65,6.65,0,0,1-3.69.94A7.57,7.57,0,0,1,95.35,92a4.56,4.56,0,0,1-1-.47c-.32.55,0,1,0,1.72a1.11,1.11,0,0,1-.16.54,1.18,1.18,0,0,1-1,.52H87.35a1.76,1.76,0,0,1-.08-.59c0-.92.19-2.56,1.94-2.13a.47.47,0,0,0,.5-.23c.69-1.19,1-5.52,1.12-8.22.06-1.32.08-2.25.08-2.25a20,20,0,0,1,.94-7.24,7.36,7.36,0,0,1,.77-3.4h0A4.66,4.66,0,0,1,91.94,68h0c0-.65,0-1.3,0-2a6.91,6.91,0,0,1,1.74-4.83h0a6.6,6.6,0,0,1,8.75,0h0l0,0a7,7,0,0,1,1.69,4.79c0,.64,0,1.3,0,1.94h0a4.62,4.62,0,0,1-.68,2.23h0a7.36,7.36,0,0,1,.77,3.4,20,20,0,0,1,.94,7.24s.17,8.71,1.2,10.47a.48.48,0,0,0,.5.23C109.34,91,108.88,94.33,108.8,94.33Z"/><path class="cls-10" d="M106.44,91.38c-.7-1.19-1-5.52-1.12-8.22a11.15,11.15,0,0,1,1.58,4.52h0c0,.16.07.32.1.48a10.23,10.23,0,0,0,.7,2.06,6,6,0,0,0,.36.68c.1.18.29.17.48.12,2.4-.59,1.94,2.72,1.86,2.72h-1.52a2.38,2.38,0,0,0-.67-2,1.45,1.45,0,0,0-1.27-.15.46.46,0,0,1-.5-.23Z"/><path class="cls-10" d="M89.7,91.38c.7-1.19,1-5.52,1.12-8.22a11.15,11.15,0,0,0-1.58,4.52h0c0,.16-.07.32-.1.48a10.23,10.23,0,0,1-.7,2.06,6,6,0,0,1-.36.68c-.1.18-.29.17-.48.12-2.4-.59-1.94,2.72-1.86,2.72h1.52a2.38,2.38,0,0,1,.67-2,1.45,1.45,0,0,1,1.27-.15.46.46,0,0,0,.5-.23Z"/><path class="cls-11" d="M93.7,61.25A6.92,6.92,0,0,0,92,66.08c.05,2.64-.23,5.53-.9,6.72a.19.19,0,0,1-.34-.09A2.15,2.15,0,0,0,89.66,71c-1.39-.9-3.09-2.87-2.3-4.46a22.88,22.88,0,0,1,4.86-5.26,1,1,0,0,1,.83-.15Z"/><path class="cls-11" d="M102.45,61.25a6.92,6.92,0,0,1,1.74,4.83c0,2.64.24,5.53.91,6.72a.18.18,0,0,0,.33-.09A2.15,2.15,0,0,1,106.49,71c1.39-.9,3.09-2.87,2.31-4.46a22.93,22.93,0,0,0-4.87-5.26,1,1,0,0,0-.83-.15Z"/><path class="cls-12" d="M101.76,91.55h0l-.12.07-.09.06a6.13,6.13,0,0,1-1.1.46l-.23.07-.27.07-.14,0-.15,0a6.68,6.68,0,0,1-.83.11h-.15a5.54,5.54,0,0,1-.59,0,5.68,5.68,0,0,1-.59,0h-.12l-.42,0-.17,0-.17,0-.21-.05-.21,0h0l-.14,0a3.37,3.37,0,0,1-.41-.12l-.13,0L95.23,92l-.15-.07-.14-.06h0l-.23-.12h0l-.07,0-.1-.06h0l-.13-.08h0a2.27,2.27,0,0,0,.12-1.19,5.38,5.38,0,0,1,.1-1.65c.15-.66.36-3.06.54-5.14a2.94,2.94,0,0,1,2.92-2.69h0A2.94,2.94,0,0,1,101,83.57c.18,2.08.38,4.48.54,5.14a5.38,5.38,0,0,1,.1,1.65A2.27,2.27,0,0,0,101.76,91.55Z"/><path class="cls-13" d="M104.21,68a5.22,5.22,0,0,1-1.91,3.67l0,.21a2.53,2.53,0,0,1-2.52,2.46A2.85,2.85,0,0,1,98.07,74a2.84,2.84,0,0,1-1.67.38,2.53,2.53,0,0,1-2.52-2.46l0-.21A5.19,5.19,0,0,1,91.94,68c0-.65,0-1.31,0-2a7,7,0,0,1,1.73-4.83h0a6.6,6.6,0,0,1,8.75,0,6.92,6.92,0,0,1,1.74,4.83C104.18,66.72,104.19,67.38,104.21,68Z"/><path class="cls-14" d="M99.75,74.37c-.1.36-.81.63-1.68.63s-1.57-.27-1.67-.63A2.8,2.8,0,0,0,98.07,74,2.85,2.85,0,0,0,99.75,74.37Z"/><path class="cls-14" d="M99.75,71.65a1.68,1.68,0,1,1-3.35,0c0-.6.75-1.08,1.67-1.08S99.75,71.05,99.75,71.65Z"/><path class="cls-15" d="M100.61,65.86a.94.94,0,0,1,.62-.26,1.2,1.2,0,0,1,.79.21h0a2.16,2.16,0,0,1,.43.37"/><path class="cls-16" d="M102.12,66.2a.84.84,0,0,1-1.19.76.8.8,0,0,1-.47-.75h0a.47.47,0,0,1,.09-.28.9.9,0,0,1,.68-.33,1,1,0,0,1,.43,0,.63.63,0,0,1,.46.52Z"/><path class="cls-15" d="M95.54,65.86a.92.92,0,0,0-.62-.26,1.2,1.2,0,0,0-.79.21h0a2.48,2.48,0,0,0-.43.37"/><path class="cls-16" d="M94,66.2a.84.84,0,1,0,1.67,0h0a.48.48,0,0,0-.1-.28.89.89,0,0,0-.68-.33,1,1,0,0,0-.43,0,.61.61,0,0,0-.45.52A.06.06,0,0,0,94,66.2Z"/></g><rect class="cls-17" x="157.92" y="52.08" width="73.97" height="134.52" rx="8"/><rect class="cls-5" x="168.22" y="158.65" width="53.36" height="8.37" rx="1"/><rect class="cls-6" x="168.22" y="158.65" width="6.57" height="8.37" rx="1"/><rect class="cls-5" x="168.22" y="144.67" width="53.36" height="8.37" rx="1"/><rect class="cls-7" x="168.22" y="144.67" width="46.79" height="8.37" rx="1"/><line class="cls-18" x1="177.9" y1="180.44" x2="211.92" y2="180.44"/><rect class="cls-5" x="172.91" y="91.91" width="44" height="44"/><path class="cls-4" d="M195.39,70.37a.8.8,0,0,1-.75-.84c0-.83,0-2.93,0-4.12-.73,1.55-1.48,3.54-2.3,4.3a.71.71,0,0,1-.83-.12,3.94,3.94,0,0,1-.54-.87c-.8-1.62-1.33-2.49-1.71-3.39,0,2.88,0,4-.31,4.64a.61.61,0,0,1-1,0,4.69,4.69,0,0,1-.3-2.1c0-3.5,0-4,.06-4.44a2.68,2.68,0,0,1,.37-1.69.74.74,0,0,1,1,.06,6.34,6.34,0,0,1,.89,1.55c.71,1.36,1.44,2.71,2,4,.44-.82.75-1.79,1.25-2.67s.89-1.84,1.42-2.7c.31-.52,1.45-.34,1.46.33,0,1.41.1,6.22.1,7.19A.87.87,0,0,1,195.39,70.37Z"/><path class="cls-4" d="M200.35,69.84a3.26,3.26,0,0,1-.13-1.15c0-.89,0-1.72,0-2.51-.76-1-1.26-1.47-2-2.51a2,2,0,0,1-.51-1.51.65.65,0,0,1,.9-.42c.52.15.69.59,1.06,1.07s.79,1.08,1.27,1.67c.33-.4,1-1.53,1.67-2.43a1.25,1.25,0,0,1,.6-.4c.52-.15,1,.25.77.92a14.07,14.07,0,0,1-2.17,3.55c0,.48,0,.77,0,2.57a2.41,2.41,0,0,1-.24,1.15C201.35,70.25,200.51,70.25,200.35,69.84Z"/><path class="cls-4" d="M170.29,82.1a.65.65,0,0,1-.63-.49,26.28,26.28,0,0,1-.19-3.71,18.37,18.37,0,0,1,.17-3.08.62.62,0,0,1,.2-.91C172,72.83,175,74,175,76.29a2.81,2.81,0,0,1-.26,1.28A2.58,2.58,0,0,1,173.2,79a5.11,5.11,0,0,1-2.11.14,14.61,14.61,0,0,1-.14,2.49A.69.69,0,0,1,170.29,82.1Zm.76-4.52c.32,0,.63,0,.93,0,1.08,0,1.5-.59,1.4-1.45a1.24,1.24,0,0,0-1-1.07,4.4,4.4,0,0,0-1.56-.07A20.15,20.15,0,0,1,171.05,77.58Z"/><path class="cls-4" d="M181.12,81.9A18,18,0,0,1,179.44,79l-.65.06h-.2c0,.73,0,1.49,0,2.23a.79.79,0,0,1-.81.8c-.49.09-.8-.4-.8-.8-.12-2-.2-3.71-.25-5.7a5.86,5.86,0,0,1,0-.72A1.5,1.5,0,0,1,177,74a2,2,0,0,1,1.56-.63c1.46,0,3,.35,3.59,1.63a2.86,2.86,0,0,1-.06,2.58,2.77,2.77,0,0,1-1.21,1.09c.36.52.72,1,1.13,1.67a2.54,2.54,0,0,1,.46,1.06.76.76,0,0,1-.5.7A.75.75,0,0,1,181.12,81.9Zm-.29-5.64a1.29,1.29,0,0,0-.78-1.19,3.28,3.28,0,0,0-1.71-.2c.09.82.17,1.73.19,2.59A2.81,2.81,0,0,0,180,77.3,1.18,1.18,0,0,0,180.83,76.26Z"/><path class="cls-4" d="M188.19,73.37a4.55,4.55,0,1,1-4.32,4.55A4.44,4.44,0,0,1,188.19,73.37Zm0,7.58a3,3,0,1,0-2.88-3A3,3,0,0,0,188.19,81Z"/><path class="cls-4" d="M194.28,79.75c.45,0,.57.41,1,.71s.54.3.84.25.48-.15.72-.65c.49-.58.09-5.61.26-5.93a.72.72,0,0,1,1.37,0c.15.69.13,4,.13,4.94a3.45,3.45,0,0,1-.84,2.59,2.12,2.12,0,0,1-1.34.6,3.67,3.67,0,0,1-1.15-.15c-.88-.33-1.63-.93-1.63-1.78A.59.59,0,0,1,194.28,79.75Z"/><path class="cls-4" d="M201.47,82c-.56-.17-.61-.93-.64-1.57-.12-2.13,0-3.75,0-5.79,0-.42,0-1,.4-1a22.35,22.35,0,0,1,3.69-.11c.46.06.71.14.85.48a.84.84,0,0,1-.87,1.14h-2.68c0,.73.08,1.26.05,2,1.79,0,2.15-.06,2.72.16a.58.58,0,0,1,0,1.14,15.28,15.28,0,0,1-2.7.08c0,.55,0,1.79,0,2,1.24,0,2-.08,2.93-.09a.77.77,0,0,1,.84.8c0,.67-.44.77-.84.81A20.48,20.48,0,0,1,201.47,82Z"/><path class="cls-4" d="M214.26,75.59a.68.68,0,0,1-.8.13,2.61,2.61,0,0,0-2.21-.68c-.78,0-2.41.56-2.41,3a2.55,2.55,0,0,0,2.58,2.36,2.48,2.48,0,0,0,1.76-.65c.23-.19.9-.62,1.37-.06a.8.8,0,0,1,.13,1A3.1,3.1,0,0,1,212.62,82a4,4,0,0,1-2.25-.1,4.75,4.75,0,0,1-2.64-2.36,4.68,4.68,0,0,1-.41-1.88,4.83,4.83,0,0,1,.47-1.88,4.08,4.08,0,0,1,6.28-1.22C214.35,74.81,214.59,75.25,214.26,75.59Z"/><path class="cls-4" d="M219,82.13a.65.65,0,0,1-.61-.46,5.56,5.56,0,0,1-.22-1.91c0-.74,0-2.7,0-4.45-.83,0-1.83.08-2.23-.49a.63.63,0,0,1,0-.61c.29-.47.88-.5,1.53-.52,1.2,0,2.4,0,3.63,0a.83.83,0,0,1,.79.79.82.82,0,0,1-.79.83c-.46,0-.9,0-1.34,0,0,1.73,0,3.67,0,4.39a5.28,5.28,0,0,1-.22,2A.65.65,0,0,1,219,82.13Z"/><g class="cls-19"><path class="cls-9" d="M206.1,117.68a11.47,11.47,0,0,1-3.35,5.84,5.41,5.41,0,0,0-.6-1.12h0c-.06-1.31-.08-2.24-.08-2.24a4.88,4.88,0,0,0,2.36-3.11c.6-2.63,1.44-4.48,1.85-3.9C206.89,114.4,206.68,114.93,206.1,117.68Z"/><path class="cls-7" d="M205.63,133.57h-5.89a1.15,1.15,0,0,1-1-.53,1,1,0,0,1-.16-.53c0-.77.31-1.17,0-1.73a6.61,6.61,0,0,1-3.69.95,7.63,7.63,0,0,1-2.73-.47,4.3,4.3,0,0,1-.95-.48c-.32.56,0,1,0,1.73a1.07,1.07,0,0,1-.16.53,1.17,1.17,0,0,1-1,.53h-5.88a1.61,1.61,0,0,1-.09-.59c0-.92.2-2.56,1.95-2.14a.46.46,0,0,0,.49-.23c.7-1.18,1-5.51,1.13-8.22.06-1.31.08-2.24.08-2.24a19.9,19.9,0,0,1,.94-7.24,7.18,7.18,0,0,1,.77-3.4h0a4.58,4.58,0,0,1-.68-2.22v0h0c0-.65,0-1.31,0-2a7,7,0,0,1,1.73-4.83h0a6.57,6.57,0,0,1,8.75,0h0l0,0a7,7,0,0,1,1.7,4.79c0,.64,0,1.29,0,1.93h0a4.67,4.67,0,0,1-.68,2.24h0a7.24,7.24,0,0,1,.76,3.4,19.76,19.76,0,0,1,.95,7.24s.17,8.71,1.2,10.46a.47.47,0,0,0,.5.23C206.17,130.25,205.71,133.57,205.63,133.57Z"/><path class="cls-10" d="M203.27,130.61c-.7-1.18-1-5.51-1.13-8.22a11.32,11.32,0,0,1,1.59,4.52h0c0,.17.06.33.1.48a10.18,10.18,0,0,0,.69,2.07,7,7,0,0,0,.37.68c.1.17.29.17.48.12,2.4-.59,1.94,2.72,1.86,2.72h-1.52a2.37,2.37,0,0,0-.67-2,1.49,1.49,0,0,0-1.28-.16.46.46,0,0,1-.49-.23Z"/><path class="cls-10" d="M186.53,130.61c.7-1.18,1-5.51,1.12-8.22a11.24,11.24,0,0,0-1.58,4.52h0c0,.17-.07.33-.1.48a10.13,10.13,0,0,1-.7,2.07,7,7,0,0,1-.36.68c-.1.17-.29.17-.48.12-2.4-.59-1.94,2.72-1.86,2.72h1.52a2.39,2.39,0,0,1,.66-2,1.5,1.5,0,0,1,1.28-.16.46.46,0,0,0,.5-.23Z"/><path class="cls-11" d="M190.53,100.49a6.89,6.89,0,0,0-1.74,4.83c.05,2.63-.24,5.53-.91,6.71a.18.18,0,0,1-.33-.08,2.14,2.14,0,0,0-1.06-1.74c-1.39-.9-3.09-2.88-2.31-4.46a22.72,22.72,0,0,1,4.87-5.26,1.06,1.06,0,0,1,.83-.16Z"/><path class="cls-11" d="M199.28,100.49a6.89,6.89,0,0,1,1.74,4.83c-.05,2.63.23,5.53.9,6.71a.18.18,0,0,0,.34-.08,2.14,2.14,0,0,1,1.06-1.74c1.39-.9,3.09-2.88,2.31-4.46a22.94,22.94,0,0,0-4.87-5.26,1.07,1.07,0,0,0-.83-.16Z"/><path class="cls-12" d="M198.59,130.78h0l-.12.08-.1.06a6,6,0,0,1-1.09.46l-.23.07-.27.06-.15,0-.15,0a6.27,6.27,0,0,1-.82.11h-.15l-.59,0-.59,0h-.12l-.42,0-.17,0-.17,0-.22,0-.2-.05h0l-.13,0-.41-.12-.13,0-.24-.09-.16-.06-.13-.06h0l-.23-.11h0l-.06,0-.1-.06h0l-.14-.09h0a2.27,2.27,0,0,0,.12-1.19,5,5,0,0,1,.1-1.64c.15-.66.36-3.06.54-5.15a2.93,2.93,0,0,1,2.92-2.68h0a2.93,2.93,0,0,1,2.93,2.68c.18,2.09.38,4.49.54,5.15a5.32,5.32,0,0,1,.1,1.64A2.08,2.08,0,0,0,198.59,130.78Z"/><path class="cls-13" d="M201,107.26a5.21,5.21,0,0,1-1.92,3.68c0,.07,0,.14,0,.21a2.55,2.55,0,0,1-2.52,2.46,2.93,2.93,0,0,1-1.68-.38,2.92,2.92,0,0,1-1.67.38,2.54,2.54,0,0,1-2.52-2.46l0-.21a5.19,5.19,0,0,1-1.91-3.68c0-.64,0-1.3,0-1.94a7,7,0,0,1,1.73-4.83h0a6.57,6.57,0,0,1,8.75,0,6.89,6.89,0,0,1,1.74,4.83C201,106,201,106.62,201,107.26Z"/><path class="cls-14" d="M196.58,113.61c-.1.35-.81.63-1.68.63s-1.57-.28-1.67-.63a2.92,2.92,0,0,0,1.67-.38A2.93,2.93,0,0,0,196.58,113.61Z"/><path class="cls-14" d="M196.58,110.88a1.68,1.68,0,1,1-3.35,0c0-.59.75-1.08,1.67-1.08S196.58,110.29,196.58,110.88Z"/><path class="cls-15" d="M197.44,105.1a1,1,0,0,1,.62-.27,1.26,1.26,0,0,1,.79.21h0a2.16,2.16,0,0,1,.43.37"/><path class="cls-16" d="M199,105.44a.84.84,0,0,1-1.2.75.8.8,0,0,1-.46-.74h0a.44.44,0,0,1,.09-.27.94.94,0,0,1,.68-.34,1.21,1.21,0,0,1,.43,0,.61.61,0,0,1,.45.52A.06.06,0,0,1,199,105.44Z"/><path class="cls-15" d="M192.37,105.1a1,1,0,0,0-.62-.27,1.26,1.26,0,0,0-.79.21h0a2.16,2.16,0,0,0-.43.37"/><path class="cls-16" d="M190.86,105.44a.83.83,0,0,0,1.19.75.79.79,0,0,0,.47-.74h0a.44.44,0,0,0-.09-.27.94.94,0,0,0-.68-.34,1.21,1.21,0,0,0-.43,0,.63.63,0,0,0-.46.52Z"/></g></g></g></svg>