<svg version="1.1" xmlns="http://www.w3.org/2000/svg" xmlns:xlink="http://www.w3.org/1999/xlink" x="0px" y="0px"
	 viewBox="0 0 272.5 129.6" style="enable-background:new 0 0 272.5 129.6;" xml:space="preserve">
<style type="text/css">
	.st0{fill:#D2E3FC;}
	.st1{fill:#1967D2;}
	.st2{fill:#FFFFFF;stroke:#231F20;stroke-width:2.5;stroke-linecap:round;stroke-linejoin:round;}
	.st3{fill:none;stroke:#231F20;stroke-width:2.5;stroke-linecap:round;stroke-linejoin:round;}
</style>
<title>Train</title>
<g id="Layer_2_1_">
	<g id="Design">
		<path class="st0" d="M41.7,40h189c4.3,0,7.8,3.5,7.8,7.8v32.8c0,4.3-3.5,7.8-7.8,7.8h-189c-4.3,0-7.8-3.5-7.8-7.8V47.8
			C33.9,43.5,37.4,40,41.7,40z"/>
		<path class="st1" d="M69.8,72.4c-0.5,0-1-0.3-1.1-0.8c-0.3-1.1-0.5-2.3-0.4-3.4c0-1.3,0-4.8,0-7.9c-1.5,0-3.3,0.1-4-0.9
			c-0.2-0.3-0.2-0.8,0-1.1c0.5-0.8,1.6-0.9,2.7-0.9c2.1,0,4.3-0.1,6.5-0.1c0.8,0,1.4,0.6,1.4,1.4c0,0.8-0.6,1.4-1.4,1.5
			c-0.8,0-1.6,0-2.4,0c0,3.1,0,6.5,0,7.8c0.1,1.2,0,2.4-0.4,3.6C70.6,72,70.3,72.3,69.8,72.4z"/>
		<path class="st1" d="M85.5,72c-0.4-0.2-2.2-3.6-3-5.1l-1.2,0.1H81c0.1,1.3,0.1,2.7,0.1,4c0,0.8-0.6,1.4-1.4,1.4c0,0,0,0,0,0
			c-0.9,0.2-1.4-0.7-1.4-1.4c-0.2-3.5-0.4-6.6-0.4-10.2c0-0.4,0-0.9,0.1-1.3c-0.1-0.6,0.1-1.2,0.3-1.7c0.4-0.7,1.7-1.1,2.8-1.1
			c2.6,0,5.4,0.6,6.4,2.9c0.7,1.5,0.6,3.2-0.1,4.6c-0.5,0.8-1.3,1.5-2.2,1.9c0.6,0.9,1.3,1.8,2,3c0.4,0.6,0.7,1.2,0.8,1.9
			c0,0.6-0.4,1.1-0.9,1.3C86.5,72.5,85.9,72.4,85.5,72z M85,61.9c0-0.9-0.5-1.8-1.4-2.1c-0.7-0.4-1.2-0.4-3.1-0.4
			c0.2,1.5,0.3,3.1,0.3,4.6c0.9,0.1,1.8,0,2.6-0.3C84.3,63.5,84.9,62.8,85,61.9z"/>
		<path class="st1" d="M100.3,71.9c-0.7-1.4-1.4-3.3-1.5-3.7c-0.3,0.1-0.5,0.1-0.8,0.1c-1.3,0-2-0.7-3.7-0.7c-0.4,0-0.5,0-0.6,0.2
			c-0.3,1-0.7,1.8-1.1,2.7c-0.2,0.7-0.7,1.3-1.3,1.7c-0.5,0.3-1.2,0.1-1.5-0.4c0-0.1-0.1-0.1-0.1-0.2c-0.2-0.7-0.1-1.4,0.2-2
			c1.4-3.7,3.1-7.6,4.5-10.7c0.2-0.4,0.4-0.8,0.6-1.2c0.4-0.6,1.1-0.8,1.7-0.5c0.8,0.1,1.6,2.3,2.1,3.7c1.1,2.7,2.2,5.6,3.3,8.4
			c0.2,0.5,0.4,1.1,0.6,1.7c0.2,0.7-0.1,1.4-0.8,1.7C101.4,72.7,100.7,72.5,100.3,71.9z M98,66.1c-0.6-1.5-1.5-3.9-1.7-4.5
			c-0.2,0.6-1.3,2.7-1.8,4c0.5,0,1.1,0,1.6,0.2c0.6,0.1,1.1,0.2,1.7,0.3C98,66.1,97.9,66.1,98,66.1z"/>
		<path class="st1" d="M105.8,57.7c0.3-0.5,1-0.6,1.4-0.3c0,0,0.1,0,0.1,0.1c0.4,0.5,0.6,1.1,0.7,1.7c0.3,2.7,0.4,5.4,0.3,8.1
			c0.1,1.4,0,2.7-0.1,4.1c-0.1,0.7-0.7,1.1-1.4,1.1c-0.7,0-1.2-0.4-1.4-1.1c-0.1-0.6-0.1-1.3-0.1-1.9c0.1-2.9,0-5.8,0-8.6
			C105.4,59.8,105.3,58.5,105.8,57.7z"/>
		<path class="st1" d="M113,72.1c-0.1-0.1-0.7-0.6-0.7-2.2c0-3.7-0.1-5.8-0.1-8c0-1.1,0-2.3,0.2-3.4c0.2-0.9,1.3-1.7,2.1-1.2
			c1,0.7,1.8,1.7,2.5,2.7c1.6,2.1,2.9,4.1,4.5,6.3c-0.1-2.2,0-4.5,0.1-6.7c0-0.7,0.2-1.3,0.5-1.9c0.2-0.5,0.7-0.7,1.2-0.6
			c0.1,0,0.2,0.1,0.3,0.2c0.5,0.3,0.5,1.6,0.6,2.2c0.2,2.4,0.3,5.3,0.3,7.9c0,3,0.1,3.9-0.4,4.5c-0.5,0.4-1.2,0.4-1.7,0
			c-1.2-0.9-5.3-6.8-7.1-9.9c0,4,0.1,5.1,0.1,7.8c0.1,0.8-0.2,1.6-0.7,2.2C114.1,72.5,113.4,72.5,113,72.1z"/>
		<path class="st1" d="M147.4,72.8c-0.8,0-1.4-0.7-1.4-1.5c0-1.5,0.1-5.2,0.1-7.3c-1.3,2.8-2.7,6.3-4.1,7.7
			c-0.5,0.3-1.1,0.2-1.5-0.2c-0.4-0.5-0.7-1-1-1.5c-1.4-2.9-2.4-4.5-3.1-6.1c0,5.1,0,7.2-0.6,8.3c-0.3,0.5-1,0.7-1.5,0.4
			c-0.2-0.1-0.3-0.2-0.4-0.4c-0.6-0.9-0.5-2.6-0.5-3.7c0-6.2,0.1-7.1,0.1-7.9c0-1.1,0.1-2.5,0.7-3c0.5-0.5,1.3-0.4,1.8,0.1
			c0.7,0.8,1.2,1.8,1.6,2.8c1.3,2.4,2.6,4.8,3.6,7.2c0.8-1.5,1.3-3.2,2.2-4.8s1.6-3.3,2.5-4.8c0.6-0.9,2.6-0.6,2.6,0.6
			c0,2.5,0.2,11.1,0.2,12.8C148.8,72.1,148.2,72.8,147.4,72.8z"/>
		<path class="st1" d="M159.6,56.8c4.4,0.1,7.8,3.8,7.7,8.1c0.3,4.2-3,7.9-7.2,8.1c-4.2,0.3-7.9-3-8.1-7.2c0-0.3,0-0.6,0-0.9
			C151.8,60.5,155.3,56.9,159.6,56.8z M159.6,70.3c2.9-0.1,5.2-2.5,5.1-5.4c0.1-2.8-2.1-5.2-4.9-5.3c-2.8-0.1-5.2,2.1-5.3,4.9
			c0,0.1,0,0.3,0,0.4C154.4,67.8,156.7,70.2,159.6,70.3C159.6,70.3,159.6,70.3,159.6,70.3L159.6,70.3z"/>
		<path class="st1" d="M172.5,72.1c-0.6,0.2-1.3,0-1.6-0.5c-0.3-0.7-0.4-1.4-0.4-2.1c0-3.6-0.1-5.7-0.1-7.9c0.2-1,0-2.1,0.6-3.2
			c0.6-1.1,0.9-1.2,2.7-1.2c1.8-0.1,3.5,0.2,5.2,0.8c1.9,0.9,3.3,2.6,3.8,4.7c1.1,4.1-0.5,9.1-4.7,9.7
			C176.2,72.4,174.3,72.4,172.5,72.1z M173.5,69.6c3.7,0,3.8-0.2,4.5-0.4c0.7-0.2,2.1-0.8,2.2-3.6c0-4.1-1.8-5.9-7-5.8
			C173.3,62.1,173.5,65,173.5,69.6L173.5,69.6z"/>
		<path class="st1" d="M187.4,72.2c-1-0.3-1.1-1.7-1.2-2.8c-0.2-3.8,0-6.7,0.1-10.3c0-0.7,0-1.8,0.7-1.8c2.2-0.2,4.4-0.3,6.6-0.2
			c0.8,0.1,1.3,0.3,1.5,0.9c0.3,0.8-0.1,1.6-0.9,1.9c-0.2,0.1-0.4,0.1-0.6,0.1c-2.2,0-3.6,0-4.8,0c0,1.3,0.1,2.2,0.1,3.6
			c3.2,0,3.8-0.1,4.9,0.3c0.6,0,1,0.5,1,1.1c0,0.6-0.5,1-1.1,1c-1.6,0.2-3.2,0.2-4.8,0.2c0,1,0,3.2,0,3.6c2.2,0,3.6-0.2,5.2-0.2
			c0.8-0.1,1.4,0.5,1.5,1.3c0,0.1,0,0.1,0,0.2c0,1.2-0.8,1.4-1.5,1.5C191.9,72.5,189.6,72.5,187.4,72.2z"/>
		<path class="st1" d="M199.9,72c-0.9-0.4-0.9-1.6-0.9-4.5c-0.1-2,0.2-5.4,0.1-7.5c0-1.2,0.1-1.9,0.8-2.5c0.4-0.3,1-0.3,1.3,0
			c0.7,0.7,0.7,2.3,0.7,6.8c0,1.3,0.1,4.3,0.1,5.3c1.5-0.1,3.1-0.2,4.7-0.2c0.8-0.1,1.4,0.5,1.5,1.3c0,0.1,0,0.1,0,0.2
			c0,0.8-0.7,1.4-1.5,1.5C202.3,72.4,201,72.5,199.9,72z"/>
		<g>
			<path class="st2" d="M153.5,86.4v11.7c0,0.3,0,0.7,0,1c-0.5,8.5-7.9,15-16.4,14.5c-5.6-0.4-10.6-3.7-13-8.8l-6.2-13
				c-0.9-1.5-0.4-3.4,1.2-4.3c1.5-0.9,3.4-0.4,4.3,1.2l4.9,8.5V70.8c0-1.8,1.4-3.3,3.2-3.3c0,0,0,0,0.1,0c1.7,0.1,3,1.5,3,3.2V84
				c-0.1-1.7,1.3-3.2,3-3.3c1.7-0.1,3.2,1.3,3.3,3c0,0.1,0,0.2,0,0.3v1.2c0-1.7,1.4-3.2,3.1-3.2c0,0,0,0,0,0c0.8,0,1.6,0.3,2.2,0.9
				c0.6,0.6,0.9,1.4,0.9,2.2v1.2c-0.1-1.7,1.3-3.2,3-3.3s3.2,1.3,3.3,3C153.5,86.2,153.5,86.3,153.5,86.4L153.5,86.4z"/>
			<line class="st3" x1="134.5" y1="84" x2="134.5" y2="88.5"/>
			<line class="st3" x1="140.9" y1="85.2" x2="140.9" y2="89.8"/>
			<line class="st3" x1="147.2" y1="86.4" x2="147.2" y2="91"/>
		</g>
	</g>
</g>
</svg>
